<mxfile host="app.diagrams.net" modified="2023-11-01T18:07:42.197Z" agent="Mozilla/5.0 (Windows NT 10.0; Win64; x64) AppleWebKit/537.36 (KHTML, like Gecko) Chrome/118.0.0.0 Safari/537.36" etag="5xeXWvAwcGTF8kyq_rQE" version="22.0.8" type="device">
  <diagram name="Page-1" id="pr3ZnX4XN8sWSbJLsK2t">
    <mxGraphModel dx="2231" dy="1201" grid="1" gridSize="10" guides="1" tooltips="1" connect="1" arrows="1" fold="1" page="1" pageScale="1" pageWidth="1200" pageHeight="1000" math="0" shadow="0">
      <root>
        <mxCell id="0" />
        <mxCell id="1" parent="0" />
        <mxCell id="nyCOoS_U9nE8Rg4QAfvF-14" value="" style="rounded=0;whiteSpace=wrap;html=1;" vertex="1" parent="1">
          <mxGeometry width="1200" height="1000" as="geometry" />
        </mxCell>
        <mxCell id="nyCOoS_U9nE8Rg4QAfvF-2" value="" style="rounded=0;whiteSpace=wrap;html=1;dashed=1;fillColor=none;strokeColor=#6c8ebf;" vertex="1" parent="1">
          <mxGeometry x="80" y="40" width="400" height="920" as="geometry" />
        </mxCell>
        <mxCell id="nyCOoS_U9nE8Rg4QAfvF-3" value="" style="rounded=0;whiteSpace=wrap;html=1;glass=0;dashed=1;fillColor=none;strokeColor=#6c8ebf;" vertex="1" parent="1">
          <mxGeometry x="600" y="40" width="400" height="920" as="geometry" />
        </mxCell>
        <mxCell id="nyCOoS_U9nE8Rg4QAfvF-6" value="" style="sketch=0;points=[[0,0,0],[0.25,0,0],[0.5,0,0],[0.75,0,0],[1,0,0],[0,1,0],[0.25,1,0],[0.5,1,0],[0.75,1,0],[1,1,0],[0,0.25,0],[0,0.5,0],[0,0.75,0],[1,0.25,0],[1,0.5,0],[1,0.75,0]];outlineConnect=0;fontColor=#232F3E;fillColor=#E7157B;strokeColor=#ffffff;dashed=0;verticalLabelPosition=bottom;verticalAlign=top;align=center;html=1;fontSize=12;fontStyle=0;aspect=fixed;shape=mxgraph.aws4.resourceIcon;resIcon=mxgraph.aws4.sns;" vertex="1" parent="1">
          <mxGeometry x="1078" y="210" width="78" height="78" as="geometry" />
        </mxCell>
        <mxCell id="nyCOoS_U9nE8Rg4QAfvF-7" value="" style="sketch=0;points=[[0,0,0],[0.25,0,0],[0.5,0,0],[0.75,0,0],[1,0,0],[0,1,0],[0.25,1,0],[0.5,1,0],[0.75,1,0],[1,1,0],[0,0.25,0],[0,0.5,0],[0,0.75,0],[1,0.25,0],[1,0.5,0],[1,0.75,0]];points=[[0,0,0],[0.25,0,0],[0.5,0,0],[0.75,0,0],[1,0,0],[0,1,0],[0.25,1,0],[0.5,1,0],[0.75,1,0],[1,1,0],[0,0.25,0],[0,0.5,0],[0,0.75,0],[1,0.25,0],[1,0.5,0],[1,0.75,0]];outlineConnect=0;fontColor=#232F3E;fillColor=#E7157B;strokeColor=#ffffff;dashed=0;verticalLabelPosition=bottom;verticalAlign=top;align=center;html=1;fontSize=12;fontStyle=0;aspect=fixed;shape=mxgraph.aws4.resourceIcon;resIcon=mxgraph.aws4.cloudwatch_2;" vertex="1" parent="1">
          <mxGeometry x="1078" y="461" width="78" height="78" as="geometry" />
        </mxCell>
        <mxCell id="nyCOoS_U9nE8Rg4QAfvF-11" value="" style="image;aspect=fixed;html=1;points=[];align=center;fontSize=12;image=img/lib/azure2/security/Key_Vaults.svg;" vertex="1" parent="1">
          <mxGeometry x="1077" y="685" width="80" height="80" as="geometry" />
        </mxCell>
        <mxCell id="nyCOoS_U9nE8Rg4QAfvF-12" value="" style="rounded=0;whiteSpace=wrap;html=1;glass=0;fillColor=none;strokeColor=#82b366;" vertex="1" parent="1">
          <mxGeometry x="40" y="80" width="1000" height="840" as="geometry" />
        </mxCell>
        <mxCell id="nyCOoS_U9nE8Rg4QAfvF-24" value="Private subnet" style="points=[[0,0],[0.25,0],[0.5,0],[0.75,0],[1,0],[1,0.25],[1,0.5],[1,0.75],[1,1],[0.75,1],[0.5,1],[0.25,1],[0,1],[0,0.75],[0,0.5],[0,0.25]];outlineConnect=0;gradientColor=none;html=1;whiteSpace=wrap;fontSize=12;fontStyle=0;container=1;pointerEvents=0;collapsible=0;recursiveResize=0;shape=mxgraph.aws4.group;grIcon=mxgraph.aws4.group_security_group;grStroke=0;strokeColor=#147EBA;fillColor=#E6F2F8;verticalAlign=top;align=left;spacingLeft=30;fontColor=#147EBA;dashed=0;" vertex="1" parent="1">
          <mxGeometry x="115" y="570" width="335" height="310" as="geometry" />
        </mxCell>
        <mxCell id="nyCOoS_U9nE8Rg4QAfvF-55" value="10.0.0.0/19" style="text;html=1;strokeColor=none;fillColor=none;align=center;verticalAlign=middle;whiteSpace=wrap;rounded=0;" vertex="1" parent="nyCOoS_U9nE8Rg4QAfvF-24">
          <mxGeometry x="135" y="280" width="60" height="30" as="geometry" />
        </mxCell>
        <mxCell id="nyCOoS_U9nE8Rg4QAfvF-59" value="" style="image;aspect=fixed;html=1;points=[];align=center;fontSize=12;image=img/lib/azure2/databases/Azure_Database_PostgreSQL_Server.svg;" vertex="1" parent="nyCOoS_U9nE8Rg4QAfvF-24">
          <mxGeometry x="165" y="100" width="48" height="64" as="geometry" />
        </mxCell>
        <mxCell id="nyCOoS_U9nE8Rg4QAfvF-25" value="Private subnet" style="points=[[0,0],[0.25,0],[0.5,0],[0.75,0],[1,0],[1,0.25],[1,0.5],[1,0.75],[1,1],[0.75,1],[0.5,1],[0.25,1],[0,1],[0,0.75],[0,0.5],[0,0.25]];outlineConnect=0;gradientColor=none;html=1;whiteSpace=wrap;fontSize=12;fontStyle=0;container=1;pointerEvents=0;collapsible=0;recursiveResize=0;shape=mxgraph.aws4.group;grIcon=mxgraph.aws4.group_security_group;grStroke=0;strokeColor=#147EBA;fillColor=#E6F2F8;verticalAlign=top;align=left;spacingLeft=30;fontColor=#147EBA;dashed=0;" vertex="1" parent="1">
          <mxGeometry x="632.5" y="570" width="335" height="310" as="geometry" />
        </mxCell>
        <mxCell id="nyCOoS_U9nE8Rg4QAfvF-56" value="10.0.32.0/19" style="text;html=1;strokeColor=none;fillColor=none;align=center;verticalAlign=middle;whiteSpace=wrap;rounded=0;" vertex="1" parent="nyCOoS_U9nE8Rg4QAfvF-25">
          <mxGeometry x="137.5" y="280" width="60" height="30" as="geometry" />
        </mxCell>
        <mxCell id="nyCOoS_U9nE8Rg4QAfvF-60" value="" style="image;aspect=fixed;html=1;points=[];align=center;fontSize=12;image=img/lib/azure2/databases/Azure_Database_PostgreSQL_Server.svg;" vertex="1" parent="nyCOoS_U9nE8Rg4QAfvF-25">
          <mxGeometry x="76.5" y="100" width="48" height="64" as="geometry" />
        </mxCell>
        <mxCell id="nyCOoS_U9nE8Rg4QAfvF-34" value="" style="rounded=0;whiteSpace=wrap;html=1;fillColor=none;strokeColor=#F19C99;dashed=1;dashPattern=1 1;" vertex="1" parent="1">
          <mxGeometry x="245" y="640" width="590" height="170" as="geometry" />
        </mxCell>
        <mxCell id="nyCOoS_U9nE8Rg4QAfvF-15" value="Azure Cloud" style="text;html=1;strokeColor=none;fillColor=none;align=center;verticalAlign=middle;whiteSpace=wrap;rounded=0;" vertex="1" parent="1">
          <mxGeometry x="50" width="80" height="30" as="geometry" />
        </mxCell>
        <mxCell id="nyCOoS_U9nE8Rg4QAfvF-22" value="Public subnet" style="points=[[0,0],[0.25,0],[0.5,0],[0.75,0],[1,0],[1,0.25],[1,0.5],[1,0.75],[1,1],[0.75,1],[0.5,1],[0.25,1],[0,1],[0,0.75],[0,0.5],[0,0.25]];outlineConnect=0;gradientColor=none;html=1;whiteSpace=wrap;fontSize=12;fontStyle=0;container=1;pointerEvents=0;collapsible=0;recursiveResize=0;shape=mxgraph.aws4.group;grIcon=mxgraph.aws4.group_security_group;grStroke=0;strokeColor=#248814;fillColor=#E9F3E6;verticalAlign=top;align=left;spacingLeft=30;fontColor=#248814;dashed=0;" vertex="1" parent="1">
          <mxGeometry x="115" y="120" width="335" height="310" as="geometry" />
        </mxCell>
        <mxCell id="nyCOoS_U9nE8Rg4QAfvF-18" value="NAT gateway" style="sketch=0;outlineConnect=0;fontColor=#232F3E;gradientColor=none;strokeColor=#232F3E;fillColor=#ffffff;dashed=0;verticalLabelPosition=bottom;verticalAlign=top;align=center;html=1;fontSize=12;fontStyle=0;aspect=fixed;shape=mxgraph.aws4.resourceIcon;resIcon=mxgraph.aws4.nat_gateway;" vertex="1" parent="nyCOoS_U9nE8Rg4QAfvF-22">
          <mxGeometry x="65" y="95" width="60" height="60" as="geometry" />
        </mxCell>
        <mxCell id="nyCOoS_U9nE8Rg4QAfvF-27" value="" style="image;aspect=fixed;html=1;points=[];align=center;fontSize=12;image=img/lib/azure2/networking/Bastions.svg;" vertex="1" parent="nyCOoS_U9nE8Rg4QAfvF-22">
          <mxGeometry x="205" y="95" width="57.99999999999999" height="68" as="geometry" />
        </mxCell>
        <mxCell id="nyCOoS_U9nE8Rg4QAfvF-53" value="10.0.128.0/20" style="text;html=1;strokeColor=none;fillColor=none;align=center;verticalAlign=middle;whiteSpace=wrap;rounded=0;" vertex="1" parent="nyCOoS_U9nE8Rg4QAfvF-22">
          <mxGeometry x="137.5" y="280" width="60" height="30" as="geometry" />
        </mxCell>
        <mxCell id="nyCOoS_U9nE8Rg4QAfvF-23" value="Public subnet" style="points=[[0,0],[0.25,0],[0.5,0],[0.75,0],[1,0],[1,0.25],[1,0.5],[1,0.75],[1,1],[0.75,1],[0.5,1],[0.25,1],[0,1],[0,0.75],[0,0.5],[0,0.25]];outlineConnect=0;gradientColor=none;html=1;whiteSpace=wrap;fontSize=12;fontStyle=0;container=1;pointerEvents=0;collapsible=0;recursiveResize=0;shape=mxgraph.aws4.group;grIcon=mxgraph.aws4.group_security_group;grStroke=0;strokeColor=#248814;fillColor=#E9F3E6;verticalAlign=top;align=left;spacingLeft=30;fontColor=#248814;dashed=0;" vertex="1" parent="1">
          <mxGeometry x="632.5" y="113" width="335" height="300" as="geometry" />
        </mxCell>
        <mxCell id="nyCOoS_U9nE8Rg4QAfvF-19" value="NAT gateway" style="sketch=0;outlineConnect=0;fontColor=#232F3E;gradientColor=none;strokeColor=#232F3E;fillColor=#ffffff;dashed=0;verticalLabelPosition=bottom;verticalAlign=top;align=center;html=1;fontSize=12;fontStyle=0;aspect=fixed;shape=mxgraph.aws4.resourceIcon;resIcon=mxgraph.aws4.nat_gateway;" vertex="1" parent="nyCOoS_U9nE8Rg4QAfvF-23">
          <mxGeometry x="207.5" y="102" width="60" height="60" as="geometry" />
        </mxCell>
        <mxCell id="nyCOoS_U9nE8Rg4QAfvF-28" value="" style="image;aspect=fixed;html=1;points=[];align=center;fontSize=12;image=img/lib/azure2/networking/Bastions.svg;" vertex="1" parent="nyCOoS_U9nE8Rg4QAfvF-23">
          <mxGeometry x="67.5" y="102" width="57.99999999999999" height="68" as="geometry" />
        </mxCell>
        <mxCell id="nyCOoS_U9nE8Rg4QAfvF-54" value="10.0.144.0/20" style="text;html=1;strokeColor=none;fillColor=none;align=center;verticalAlign=middle;whiteSpace=wrap;rounded=0;" vertex="1" parent="nyCOoS_U9nE8Rg4QAfvF-23">
          <mxGeometry x="137.5" y="270" width="60" height="30" as="geometry" />
        </mxCell>
        <mxCell id="nyCOoS_U9nE8Rg4QAfvF-26" value="" style="verticalLabelPosition=bottom;html=1;verticalAlign=top;align=center;strokeColor=none;fillColor=#00BEF2;shape=mxgraph.azure.cloud;" vertex="1" parent="1">
          <mxGeometry width="50" height="32.5" as="geometry" />
        </mxCell>
        <mxCell id="nyCOoS_U9nE8Rg4QAfvF-35" value="" style="image;aspect=fixed;html=1;points=[];align=center;fontSize=12;image=img/lib/azure2/networking/Virtual_Networks_Classic.svg;" vertex="1" parent="1">
          <mxGeometry x="40" y="80" width="33.5" height="20" as="geometry" />
        </mxCell>
        <mxCell id="nyCOoS_U9nE8Rg4QAfvF-36" value="Virtual Network" style="text;html=1;strokeColor=none;fillColor=none;align=center;verticalAlign=middle;whiteSpace=wrap;rounded=0;" vertex="1" parent="1">
          <mxGeometry x="80" y="80" width="90" height="30" as="geometry" />
        </mxCell>
        <mxCell id="nyCOoS_U9nE8Rg4QAfvF-37" value="Availability Zone 1" style="text;html=1;strokeColor=none;fillColor=none;align=center;verticalAlign=middle;whiteSpace=wrap;rounded=0;" vertex="1" parent="1">
          <mxGeometry x="230" y="40" width="100" height="40" as="geometry" />
        </mxCell>
        <mxCell id="nyCOoS_U9nE8Rg4QAfvF-38" value="Availability Zone 2" style="text;html=1;strokeColor=none;fillColor=none;align=center;verticalAlign=middle;whiteSpace=wrap;rounded=0;" vertex="1" parent="1">
          <mxGeometry x="750" y="40" width="100" height="40" as="geometry" />
        </mxCell>
        <mxCell id="nyCOoS_U9nE8Rg4QAfvF-39" value="Azure Bastion" style="text;html=1;strokeColor=none;fillColor=none;align=center;verticalAlign=middle;whiteSpace=wrap;rounded=0;" vertex="1" parent="1">
          <mxGeometry x="297" y="284" width="100" height="30" as="geometry" />
        </mxCell>
        <mxCell id="nyCOoS_U9nE8Rg4QAfvF-40" value="Azure Bastion" style="text;html=1;strokeColor=none;fillColor=none;align=center;verticalAlign=middle;whiteSpace=wrap;rounded=0;" vertex="1" parent="1">
          <mxGeometry x="683" y="284" width="100" height="30" as="geometry" />
        </mxCell>
        <mxCell id="nyCOoS_U9nE8Rg4QAfvF-41" value="Azure SQL" style="text;html=1;strokeColor=none;fillColor=none;align=center;verticalAlign=middle;whiteSpace=wrap;rounded=0;" vertex="1" parent="1">
          <mxGeometry x="312" y="750" width="70" height="30" as="geometry" />
        </mxCell>
        <mxCell id="nyCOoS_U9nE8Rg4QAfvF-42" value="Azure SQL" style="text;html=1;strokeColor=none;fillColor=none;align=center;verticalAlign=middle;whiteSpace=wrap;rounded=0;" vertex="1" parent="1">
          <mxGeometry x="698" y="750" width="70" height="30" as="geometry" />
        </mxCell>
        <mxCell id="nyCOoS_U9nE8Rg4QAfvF-44" value="Azure DB PostgreSQL Server" style="text;html=1;strokeColor=none;fillColor=none;align=center;verticalAlign=middle;whiteSpace=wrap;rounded=0;" vertex="1" parent="1">
          <mxGeometry x="482.5" y="750" width="115" height="30" as="geometry" />
        </mxCell>
        <mxCell id="nyCOoS_U9nE8Rg4QAfvF-45" value="" style="image;aspect=fixed;html=1;points=[];align=center;fontSize=12;image=img/lib/azure2/networking/Network_Security_Groups.svg;" vertex="1" parent="1">
          <mxGeometry x="527.64" y="620" width="24.71" height="30" as="geometry" />
        </mxCell>
        <mxCell id="nyCOoS_U9nE8Rg4QAfvF-46" value="Network Security Group" style="text;html=1;strokeColor=none;fillColor=none;align=center;verticalAlign=middle;whiteSpace=wrap;rounded=0;" vertex="1" parent="1">
          <mxGeometry x="495" y="650" width="90" height="30" as="geometry" />
        </mxCell>
        <mxCell id="nyCOoS_U9nE8Rg4QAfvF-47" value="Azure Service Bus" style="text;html=1;strokeColor=none;fillColor=none;align=center;verticalAlign=middle;whiteSpace=wrap;rounded=0;" vertex="1" parent="1">
          <mxGeometry x="1062" y="300" width="110" height="30" as="geometry" />
        </mxCell>
        <mxCell id="nyCOoS_U9nE8Rg4QAfvF-48" value="Application Cloud Watch" style="text;html=1;strokeColor=none;fillColor=none;align=center;verticalAlign=middle;whiteSpace=wrap;rounded=0;" vertex="1" parent="1">
          <mxGeometry x="1047" y="550" width="140" height="30" as="geometry" />
        </mxCell>
        <mxCell id="nyCOoS_U9nE8Rg4QAfvF-49" value="Azure Key Vault" style="text;html=1;strokeColor=none;fillColor=none;align=center;verticalAlign=middle;whiteSpace=wrap;rounded=0;" vertex="1" parent="1">
          <mxGeometry x="1072" y="780" width="90" height="30" as="geometry" />
        </mxCell>
        <mxCell id="nyCOoS_U9nE8Rg4QAfvF-51" value="Auto Scaling Group" style="sketch=0;outlineConnect=0;gradientColor=none;html=1;whiteSpace=wrap;fontSize=12;fontStyle=0;shape=mxgraph.aws4.groupCenter;grIcon=mxgraph.aws4.group_auto_scaling_group;grStroke=0;strokeColor=#1c76ba;fillColor=none;verticalAlign=top;align=center;fontColor=#B6BABF;spacingTop=25;perimeterSpacing=1;" vertex="1" parent="1">
          <mxGeometry x="280" y="184" width="520" height="130" as="geometry" />
        </mxCell>
        <mxCell id="nyCOoS_U9nE8Rg4QAfvF-52" value="" style="rounded=0;whiteSpace=wrap;html=1;fillColor=none;dashed=1;dashPattern=8 8;strokeColor=#1b8ba1;" vertex="1" parent="1">
          <mxGeometry x="287" y="184" width="513" height="156" as="geometry" />
        </mxCell>
        <mxCell id="nyCOoS_U9nE8Rg4QAfvF-57" value="10.0.0.0/16" style="text;html=1;strokeColor=none;fillColor=none;align=center;verticalAlign=middle;whiteSpace=wrap;rounded=0;" vertex="1" parent="1">
          <mxGeometry x="510" y="880" width="60" height="30" as="geometry" />
        </mxCell>
        <mxCell id="nyCOoS_U9nE8Rg4QAfvF-58" value="" style="image;aspect=fixed;html=1;points=[];align=center;fontSize=12;image=img/lib/azure2/databases/Azure_Database_PostgreSQL_Server.svg;" vertex="1" parent="1">
          <mxGeometry x="516" y="680" width="48" height="64" as="geometry" />
        </mxCell>
        <mxCell id="nyCOoS_U9nE8Rg4QAfvF-61" value="" style="image;aspect=fixed;html=1;points=[];align=center;fontSize=12;image=img/lib/azure2/databases/Azure_Database_PostgreSQL_Server.svg;" vertex="1" parent="1">
          <mxGeometry x="360" y="670" width="48" height="64" as="geometry" />
        </mxCell>
      </root>
    </mxGraphModel>
  </diagram>
</mxfile>
